<mxfile host="Electron" agent="Mozilla/5.0 (Windows NT 10.0; Win64; x64) AppleWebKit/537.36 (KHTML, like Gecko) draw.io/26.0.16 Chrome/132.0.6834.196 Electron/34.2.0 Safari/537.36" version="26.0.16">
  <diagram name="Trang-1" id="JTH3qgMxBzzvs8UfzxBT">
    <mxGraphModel dx="780" dy="496" grid="1" gridSize="10" guides="1" tooltips="1" connect="1" arrows="1" fold="1" page="1" pageScale="1" pageWidth="827" pageHeight="1169" math="0" shadow="0">
      <root>
        <mxCell id="0" />
        <mxCell id="1" parent="0" />
        <mxCell id="CJoVNMoshDB5Zs3Bt2AQ-3" value="" style="edgeStyle=orthogonalEdgeStyle;rounded=0;orthogonalLoop=1;jettySize=auto;html=1;" parent="1" source="CJoVNMoshDB5Zs3Bt2AQ-1" target="CJoVNMoshDB5Zs3Bt2AQ-2" edge="1">
          <mxGeometry relative="1" as="geometry" />
        </mxCell>
        <mxCell id="CJoVNMoshDB5Zs3Bt2AQ-1" value="Begin" style="ellipse;whiteSpace=wrap;html=1;" parent="1" vertex="1">
          <mxGeometry x="40" y="30" width="120" height="80" as="geometry" />
        </mxCell>
        <mxCell id="CJoVNMoshDB5Zs3Bt2AQ-5" value="" style="edgeStyle=orthogonalEdgeStyle;rounded=0;orthogonalLoop=1;jettySize=auto;html=1;" parent="1" source="CJoVNMoshDB5Zs3Bt2AQ-2" target="CJoVNMoshDB5Zs3Bt2AQ-4" edge="1">
          <mxGeometry relative="1" as="geometry" />
        </mxCell>
        <mxCell id="CJoVNMoshDB5Zs3Bt2AQ-2" value="Nhập a" style="shape=parallelogram;perimeter=parallelogramPerimeter;whiteSpace=wrap;html=1;fixedSize=1;" parent="1" vertex="1">
          <mxGeometry x="240" y="40" width="120" height="60" as="geometry" />
        </mxCell>
        <mxCell id="CJoVNMoshDB5Zs3Bt2AQ-7" value="" style="edgeStyle=orthogonalEdgeStyle;rounded=0;orthogonalLoop=1;jettySize=auto;html=1;" parent="1" source="CJoVNMoshDB5Zs3Bt2AQ-4" target="CJoVNMoshDB5Zs3Bt2AQ-6" edge="1">
          <mxGeometry relative="1" as="geometry" />
        </mxCell>
        <mxCell id="CJoVNMoshDB5Zs3Bt2AQ-4" value="Nhập b" style="shape=parallelogram;perimeter=parallelogramPerimeter;whiteSpace=wrap;html=1;fixedSize=1;" parent="1" vertex="1">
          <mxGeometry x="440" y="40" width="120" height="60" as="geometry" />
        </mxCell>
        <mxCell id="CJoVNMoshDB5Zs3Bt2AQ-8" value="" style="edgeStyle=orthogonalEdgeStyle;rounded=0;orthogonalLoop=1;jettySize=auto;html=1;" parent="1" source="CJoVNMoshDB5Zs3Bt2AQ-6" target="CJoVNMoshDB5Zs3Bt2AQ-4" edge="1">
          <mxGeometry relative="1" as="geometry" />
        </mxCell>
        <mxCell id="uQNrI8AE-Q3HmJRuYZiY-13" style="edgeStyle=orthogonalEdgeStyle;rounded=0;orthogonalLoop=1;jettySize=auto;html=1;entryX=0.5;entryY=0;entryDx=0;entryDy=0;" edge="1" parent="1" source="CJoVNMoshDB5Zs3Bt2AQ-6" target="uQNrI8AE-Q3HmJRuYZiY-5">
          <mxGeometry relative="1" as="geometry" />
        </mxCell>
        <mxCell id="CJoVNMoshDB5Zs3Bt2AQ-6" value="Nhập c&amp;nbsp;" style="shape=parallelogram;perimeter=parallelogramPerimeter;whiteSpace=wrap;html=1;fixedSize=1;" parent="1" vertex="1">
          <mxGeometry x="640" y="40" width="120" height="60" as="geometry" />
        </mxCell>
        <mxCell id="uQNrI8AE-Q3HmJRuYZiY-8" value="" style="edgeStyle=orthogonalEdgeStyle;rounded=0;orthogonalLoop=1;jettySize=auto;html=1;" edge="1" parent="1" source="uQNrI8AE-Q3HmJRuYZiY-5" target="uQNrI8AE-Q3HmJRuYZiY-7">
          <mxGeometry relative="1" as="geometry" />
        </mxCell>
        <mxCell id="uQNrI8AE-Q3HmJRuYZiY-24" value="ĐÚNG" style="edgeLabel;html=1;align=center;verticalAlign=middle;resizable=0;points=[];" vertex="1" connectable="0" parent="uQNrI8AE-Q3HmJRuYZiY-8">
          <mxGeometry x="-0.1524" y="1" relative="1" as="geometry">
            <mxPoint as="offset" />
          </mxGeometry>
        </mxCell>
        <mxCell id="uQNrI8AE-Q3HmJRuYZiY-10" value="" style="edgeStyle=orthogonalEdgeStyle;rounded=0;orthogonalLoop=1;jettySize=auto;html=1;" edge="1" parent="1" source="uQNrI8AE-Q3HmJRuYZiY-5" target="uQNrI8AE-Q3HmJRuYZiY-9">
          <mxGeometry relative="1" as="geometry" />
        </mxCell>
        <mxCell id="uQNrI8AE-Q3HmJRuYZiY-22" value="SAI" style="edgeLabel;html=1;align=center;verticalAlign=middle;resizable=0;points=[];" vertex="1" connectable="0" parent="uQNrI8AE-Q3HmJRuYZiY-10">
          <mxGeometry x="-0.1246" y="-1" relative="1" as="geometry">
            <mxPoint as="offset" />
          </mxGeometry>
        </mxCell>
        <mxCell id="uQNrI8AE-Q3HmJRuYZiY-5" value="&amp;nbsp; &amp;nbsp; if a &amp;gt;&lt;span style=&quot;background-color: transparent; color: light-dark(rgb(0, 0, 0), rgb(255, 255, 255));&quot;&gt;&amp;nbsp;b&lt;/span&gt;&lt;div&gt;&lt;span style=&quot;background-color: transparent; color: light-dark(rgb(0, 0, 0), rgb(255, 255, 255));&quot;&gt;and a &amp;gt; c&lt;/span&gt;&lt;/div&gt;" style="rhombus;whiteSpace=wrap;html=1;" vertex="1" parent="1">
          <mxGeometry x="635" y="170" width="130" height="120" as="geometry" />
        </mxCell>
        <mxCell id="uQNrI8AE-Q3HmJRuYZiY-7" value="output: giá trị&amp;nbsp;&lt;div&gt;lớn nhất là&lt;/div&gt;&lt;div&gt;a&lt;/div&gt;" style="shape=parallelogram;perimeter=parallelogramPerimeter;whiteSpace=wrap;html=1;fixedSize=1;" vertex="1" parent="1">
          <mxGeometry x="640" y="360" width="120" height="60" as="geometry" />
        </mxCell>
        <mxCell id="uQNrI8AE-Q3HmJRuYZiY-17" value="" style="edgeStyle=orthogonalEdgeStyle;rounded=0;orthogonalLoop=1;jettySize=auto;html=1;" edge="1" parent="1" source="uQNrI8AE-Q3HmJRuYZiY-9" target="uQNrI8AE-Q3HmJRuYZiY-16">
          <mxGeometry relative="1" as="geometry" />
        </mxCell>
        <mxCell id="uQNrI8AE-Q3HmJRuYZiY-21" value="ĐÚNG" style="edgeLabel;html=1;align=center;verticalAlign=middle;resizable=0;points=[];" vertex="1" connectable="0" parent="uQNrI8AE-Q3HmJRuYZiY-17">
          <mxGeometry x="-0.1238" relative="1" as="geometry">
            <mxPoint as="offset" />
          </mxGeometry>
        </mxCell>
        <mxCell id="uQNrI8AE-Q3HmJRuYZiY-19" value="" style="edgeStyle=orthogonalEdgeStyle;rounded=0;orthogonalLoop=1;jettySize=auto;html=1;" edge="1" parent="1" source="uQNrI8AE-Q3HmJRuYZiY-9" target="uQNrI8AE-Q3HmJRuYZiY-18">
          <mxGeometry relative="1" as="geometry" />
        </mxCell>
        <mxCell id="uQNrI8AE-Q3HmJRuYZiY-20" value="SAI" style="edgeLabel;html=1;align=center;verticalAlign=middle;resizable=0;points=[];" vertex="1" connectable="0" parent="uQNrI8AE-Q3HmJRuYZiY-19">
          <mxGeometry x="0.0386" relative="1" as="geometry">
            <mxPoint as="offset" />
          </mxGeometry>
        </mxCell>
        <mxCell id="uQNrI8AE-Q3HmJRuYZiY-9" value="if b &amp;gt; c" style="rhombus;whiteSpace=wrap;html=1;" vertex="1" parent="1">
          <mxGeometry x="390" y="170" width="130" height="120" as="geometry" />
        </mxCell>
        <mxCell id="uQNrI8AE-Q3HmJRuYZiY-16" value="output: giá trị&amp;nbsp;&lt;div&gt;lớn nhất là&lt;/div&gt;&lt;div&gt;b&lt;/div&gt;" style="shape=parallelogram;perimeter=parallelogramPerimeter;whiteSpace=wrap;html=1;fixedSize=1;" vertex="1" parent="1">
          <mxGeometry x="395" y="360" width="120" height="60" as="geometry" />
        </mxCell>
        <mxCell id="uQNrI8AE-Q3HmJRuYZiY-18" value="output: giá trị&amp;nbsp;&lt;div&gt;lớn nhất là&lt;/div&gt;&lt;div&gt;c&lt;/div&gt;" style="shape=parallelogram;perimeter=parallelogramPerimeter;whiteSpace=wrap;html=1;fixedSize=1;" vertex="1" parent="1">
          <mxGeometry x="185" y="200" width="120" height="60" as="geometry" />
        </mxCell>
      </root>
    </mxGraphModel>
  </diagram>
</mxfile>
